<svg width="13" height="16" viewBox="0 0 13 16" fill="none" xmlns="http://www.w3.org/2000/svg">
<path d="M12.3208 7.07495C12.3208 11.4744 6.66431 15.2454 6.66431 15.2454C6.66431 15.2454 1.00781 11.4744 1.00781 7.07495C1.00781 5.57476 1.60376 4.136 2.66456 3.07521C3.72536 2.01441 5.16411 1.41846 6.66431 1.41846C8.1645 1.41846 9.60326 2.01441 10.6641 3.07521C11.7249 4.136 12.3208 5.57476 12.3208 7.07495Z" stroke="white" stroke-linecap="round" stroke-linejoin="round"/>
<path d="M6.66284 8.96045C7.70417 8.96045 8.54834 8.11628 8.54834 7.07495C8.54834 6.03362 7.70417 5.18945 6.66284 5.18945C5.62151 5.18945 4.77734 6.03362 4.77734 7.07495C4.77734 8.11628 5.62151 8.96045 6.66284 8.96045Z" stroke="white" stroke-linecap="round" stroke-linejoin="round"/>
</svg>
