<svg width="15" height="15" viewBox="0 0 15 15" fill="none" xmlns="http://www.w3.org/2000/svg">
<path d="M14.1411 10.6238V12.4972C14.1418 12.6711 14.1042 12.8432 14.0305 13.0026C13.9568 13.1619 13.8487 13.305 13.7132 13.4226C13.5776 13.5401 13.4176 13.6296 13.2434 13.6853C13.0691 13.7411 12.8845 13.7618 12.7013 13.7461C10.669 13.5373 8.71676 12.8807 7.00156 11.829C5.40578 10.8703 4.05284 9.59108 3.03882 8.08229C1.92264 6.45321 1.22801 4.59845 1.01122 2.66826C0.994716 2.49558 1.01642 2.32154 1.07495 2.15722C1.13349 1.9929 1.22757 1.84191 1.3512 1.71385C1.47483 1.5858 1.62532 1.48348 1.79306 1.41343C1.96081 1.34337 2.14215 1.30711 2.32553 1.30695H4.3069C4.62742 1.30396 4.93816 1.41128 5.18118 1.60889C5.42421 1.8065 5.58295 2.08092 5.62781 2.38101C5.71144 2.98053 5.86653 3.56918 6.09013 4.13573C6.17899 4.35924 6.19822 4.60215 6.14555 4.83567C6.09287 5.0692 5.9705 5.28355 5.79292 5.45333L4.95414 6.24639C5.89434 7.80974 7.2634 9.10418 8.91688 9.99313L9.75566 9.20007C9.93523 9.03217 10.1619 8.91647 10.4089 8.86667C10.6559 8.81686 10.9128 8.83505 11.1492 8.91906C11.7484 9.13047 12.371 9.27711 13.0051 9.35618C13.3259 9.39897 13.6189 9.55176 13.8284 9.78549C14.0378 10.0192 14.1491 10.3176 14.1411 10.6238Z" stroke="white" stroke-linecap="round" stroke-linejoin="round"/>
</svg>
